<?xml version="1.0" encoding="UTF-8"?>
<svg width="60px" height="60px" viewBox="0 0 60 60" version="1.1" xmlns="http://www.w3.org/2000/svg" xmlns:xlink="http://www.w3.org/1999/xlink">
    <!-- Generator: Sketch 59 (86127) - https://sketch.com -->
    <title>tab-icon-k8s</title>
    <desc>Created with Sketch.</desc>
    <g id="tab-icon-k8s" stroke="none" stroke-width="1" fill="none" fill-rule="evenodd">
        <g id="kubernetes" transform="translate(9.000000, 9.000000)" fill-rule="nonzero">
            <path d="M20.8556672,0.549120127 C20.4841782,0.566865316 20.1199833,0.656806001 19.7842239,0.813721125 L5.18356132,7.66184697 C4.41922196,8.01889882 3.86288349,8.69863196 3.67274924,9.50775394 L0.0704388142,24.888632 C-0.119340177,25.6959358 0.0790756476,26.5440066 0.608729852,27.1894007 L10.7142127,39.5235872 C11.2468744,40.1710011 12.0499968,40.5467716 12.8982097,40.5454545 L29.1047525,40.5429311 C29.95275,40.5445589 30.7558343,40.1692695 31.2887496,39.5223272 L41.3903783,27.1856207 C41.9203067,26.5403572 42.1191814,25.6923489 41.929954,24.884852 L38.3225048,9.50271392 C38.132018,8.69406446 37.5757282,8.01485464 36.8116927,7.65806696 L22.2084607,0.813721125 C21.7865674,0.616431199 21.321156,0.52548495 20.8543825,0.549120127 L20.8556672,0.549120127 Z" id="Path" fill="#326CE5"></path>
            <path d="M20.4993261,6.54545455 C20.0129726,6.54545455 19.6197505,6.96500965 19.6197505,7.48109955 L19.6197505,7.50585207 C19.6197505,7.5751591 19.6171636,7.66055528 19.6197505,7.72119893 C19.6300985,8.0182291 19.6973601,8.24718984 19.7400454,8.52194274 C19.8137746,9.10981494 19.8758623,9.59867708 19.8370574,10.0504104 C19.7873176,10.2185155 19.6886195,10.3696117 19.5524889,10.4860547 L19.5304995,10.8424909 C19.0027541,10.8845702 18.4698348,10.9613029 17.9395025,11.0776398 C15.7385706,11.554113 13.7367678,12.6492714 12.1912173,14.2224466 C12.0841567,14.1515983 11.978081,14.0793971 11.8730179,14.0058621 C11.7152117,14.0269017 11.5574055,14.0726939 11.3504465,13.9575947 C10.955931,13.7038814 10.5976333,13.3536334 10.164313,12.931603 C9.96511499,12.72987 9.82153721,12.5380381 9.5848279,12.3424932 C9.53050117,12.2991763 9.44901108,12.2385326 9.38951038,12.1939781 C9.21536678,12.0587788 9.00043513,11.9806844 8.77639446,11.9712055 C8.5065709,11.9575874 8.24614044,12.0679264 8.07532098,12.2682357 C7.77135,12.6333352 7.86836202,13.1890292 8.29133439,13.5108118 L8.30426933,13.5207128 C8.36247654,13.5652674 8.43361868,13.6234358 8.48665191,13.6605645 C8.73758965,13.837545 8.96524451,13.9291293 9.21618225,14.068981 C9.74263411,14.3808627 10.1785414,14.6382888 10.5251977,14.9501705 C10.659721,15.0875469 10.6830039,15.3313592 10.7011128,15.4365574 L10.9830944,15.6766568 C9.42704575,17.9126273 8.78777887,20.6192492 9.18772539,23.2781536 L8.81907975,23.3808766 C8.72206773,23.5009263 8.58625091,23.690283 8.44137964,23.7472138 C7.98865691,23.8833526 7.47902047,23.9328576 6.86331756,23.9947389 C6.57486851,24.0182538 6.32651775,24.0046399 6.01995979,24.0603331 C5.95269813,24.0727093 5.85827311,24.0962242 5.78454398,24.1123133 L5.77678301,24.113551 L5.76384808,24.1172638 C5.24645068,24.2373135 4.91272935,24.6939974 5.02008931,25.1444931 C5.12744927,25.5937513 5.63320523,25.8672665 6.15577661,25.7595931 L6.16871155,25.7583555 L6.18552696,25.7521674 C6.2579626,25.7373158 6.34980064,25.7199891 6.41318182,25.7039 C6.71327231,25.6271672 6.93187272,25.5133056 7.20221286,25.4142955 C7.78428494,25.2138002 8.26675802,25.0467207 8.73629616,24.9811266 C8.93290717,24.9675127 9.13986614,25.0974634 9.24205212,25.1531565 L9.62621969,25.0900376 C10.4868861,27.637228 12.2917833,29.7951341 14.7005947,31.1568787 L14.5402015,31.5244535 C14.5984087,31.6667804 14.6617899,31.85985 14.6178111,32.0009394 C14.4483635,32.425445 14.156034,32.8734655 13.8223126,33.3722286 C13.6606259,33.602427 13.4963523,33.7806451 13.3501875,34.045497 C13.3152632,34.1073783 13.2725779,34.2063883 13.2376536,34.2719825 C13.0112922,34.7360921 13.1781529,35.2695088 13.6127667,35.4700041 C14.048674,35.6704995 14.5919413,35.4576279 14.8260636,34.9947559 L14.8286506,34.9922806 L14.8286506,34.991043 C14.8622814,34.9242112 14.9088472,34.8375774 14.937304,34.7756961 C15.0627729,34.5034185 15.1041647,34.2682696 15.1908288,34.0034177 C15.4236576,33.4440109 15.5530069,32.8561387 15.8724998,32.4898015 C15.9604574,32.3907915 16.1027417,32.3511874 16.2514934,32.312821 L16.4506914,31.9675235 C19.0625498,32.9311442 21.9542858,32.9381957 24.5712437,31.9873255 L24.7588002,32.3115834 C24.910139,32.3586132 25.0744127,32.3821281 25.208936,32.5714848 C25.4482323,32.9650498 25.612506,33.4291594 25.811704,33.9898038 C25.8996615,34.2534181 25.9436403,34.488567 26.0678157,34.7620822 C26.0962725,34.8239635 26.1441318,34.911835 26.1764691,34.9774291 C26.4118849,35.444014 26.9551522,35.6581232 27.392353,35.4551526 C27.8282603,35.2546573 27.9938275,34.7212406 27.7674661,34.2583686 C27.7338353,34.1915368 27.6872695,34.0937644 27.6523452,34.0306455 C27.507474,33.7670312 27.3419068,33.5900507 27.1815136,33.3598524 C26.8477923,32.8598516 26.5709847,32.445247 26.4002435,32.021979 C26.3291014,31.8029193 26.4131784,31.6667804 26.4687987,31.5244535 C26.4351678,31.4873247 26.3640257,31.2818789 26.3213404,31.1841064 C28.7382966,29.8115802 30.5437697,27.637019 31.3944219,25.0739485 C31.5082494,25.0912752 31.7061539,25.1234535 31.7695351,25.1358298 C31.9027649,25.0529088 32.0243533,24.9439978 32.2636496,24.9625622 C32.7331877,25.0269187 33.2156608,25.1939982 33.7977329,25.3944935 C34.068073,25.4935036 34.2853799,25.6086028 34.5867639,25.6853356 C34.6514386,25.7026623 34.7419831,25.7175138 34.8144188,25.7323653 L34.8312342,25.7385535 L34.8441691,25.7397911 C35.3667405,25.8474645 35.8724965,25.5739493 35.9798564,25.1246911 C36.0872164,24.6741954 35.7547886,24.2175115 35.2360977,24.0974618 C35.1597815,24.0813727 35.0537151,24.0541449 34.9799859,24.040531 C34.673428,23.9848379 34.4237837,23.9984518 34.1353347,23.9749369 C33.5209253,23.9130556 33.0099953,23.8635506 32.5572726,23.7274118 C32.3735965,23.6581047 32.2429537,23.4477084 32.178279,23.3610746 L31.8225683,23.2620645 C32.0115767,21.9512167 31.9493345,20.6183853 31.6388922,19.3288901 C31.3275632,18.0254986 30.7685442,16.7879466 29.989688,15.6778944 L30.3027134,15.4105672 C30.3156484,15.2595769 30.3040069,15.1011608 30.4669871,14.9340814 C30.8136434,14.6221997 31.2495507,14.3647735 31.7760025,14.0528919 C32.0256468,13.9130402 32.2571821,13.8214559 32.5081199,13.6444754 C32.5637401,13.6048714 32.6413497,13.5405148 32.7021439,13.4959603 C33.1238228,13.17294 33.2195413,12.6172461 32.9168638,12.2533841 C32.6141863,11.8895222 32.0269403,11.8548687 31.6052614,12.1766514 C31.5444672,12.2224435 31.4629771,12.2818495 31.4099439,12.3264041 C31.1732346,12.5207113 31.0270698,12.7137809 30.8278718,12.9155139 C30.3945515,13.3363066 30.0362538,13.6890299 29.6417382,13.9427432 C29.4709971,14.0380404 29.2213528,14.0046245 29.1088189,13.999674 L28.7725106,14.2273971 C26.8463916,12.2917537 24.2512339,11.0911198 21.4694463,10.848679 C21.4613473,10.7233294 21.4544484,10.5979114 21.4487504,10.4724408 C21.3336294,10.3672426 21.1952256,10.2781336 21.1603013,10.0516481 C21.1214965,9.59743945 21.1861712,9.11105256 21.2599003,8.52194274 C21.3012921,8.24718984 21.3685538,8.01946672 21.3801952,7.72119893 C21.3827822,7.65312952 21.3801952,7.55535709 21.3789017,7.48109955 C21.3789017,6.96500965 20.9843862,6.54545455 20.4993261,6.54545455 L20.4993261,6.54545455 Z M19.3972697,13.0801181 L19.135984,17.500917 L19.1165816,17.5095804 C19.10443,17.7828626 18.9362434,18.0276264 18.6788403,18.1466299 C18.4214372,18.2656334 18.1164996,18.239606 17.8851757,18.0788882 L17.8774148,18.0826011 L14.0926528,15.5132902 C15.5290604,14.1608526 17.3956382,13.3051084 19.3972697,13.0813557 L19.3972697,13.0801181 Z M21.6026761,13.0801181 C23.5917384,13.3167286 25.4443038,14.1725626 26.8749556,15.5157654 L23.11477,18.0677496 L23.1018351,18.0627991 C22.8708437,18.2246985 22.5654491,18.2517513 22.3073192,18.1331797 C22.0491892,18.0146081 21.8802638,17.7696772 21.8678423,17.4959665 L21.8639618,17.4934912 L21.6026761,13.0813557 L21.6026761,13.0801181 Z M12.7202562,17.1642828 L16.1764708,20.1246834 L16.1725903,20.1420102 C16.3889462,20.3215937 16.484339,20.6005962 16.4207449,20.8678067 C16.3571509,21.1350172 16.1449089,21.3469929 15.8686194,21.4192399 L15.8647389,21.4328538 L11.4345236,22.6581032 C11.213622,20.741031 11.6659802,18.8081448 12.7202562,17.1642828 L12.7202562,17.1642828 Z M28.2525262,17.1667581 C29.3053758,18.8056398 29.7708562,20.7283588 29.5783571,22.6432517 L25.1261524,21.415527 L25.1222719,21.3969626 C24.8465591,21.3244378 24.6348601,21.1127287 24.5713139,20.8459782 C24.5077678,20.5792277 24.6026695,20.3006523 24.8183009,20.1209705 L24.815714,20.1123072 L28.2525262,17.1667581 L28.2525262,17.1667581 Z M19.7904917,20.3524065 L21.2055736,20.3524065 L22.0851492,21.405626 L21.7695367,22.7199845 L20.4993261,23.3053814 L19.2239415,22.7187468 L18.9083291,21.4043884 L19.7904917,20.3524065 Z M24.3293604,23.9576101 C24.3891615,23.9550909 24.4490658,23.9592443 24.5078625,23.9699864 L24.5156235,23.961323 L29.0971775,24.7038984 C28.4209891,26.5238853 27.1302131,28.0763768 25.4288299,29.1160339 L23.6502763,25.0021662 L23.6554503,24.9947404 C23.5548193,24.7713106 23.5747506,24.5149152 23.7088206,24.3081883 C23.8428905,24.1014613 24.0741503,23.9705366 24.3280669,23.9576101 L24.3293604,23.9576101 Z M16.633074,23.9749369 C16.8919986,23.9787271 17.1318897,24.1058304 17.2726426,24.3138042 C17.4133956,24.5217781 17.436465,24.7832202 17.3341475,25.0108296 L17.3470824,25.0269187 L15.5879313,29.0987072 C13.8983997,28.0630684 12.6130896,26.5231049 11.9312251,24.7175123 L16.4739743,23.9786498 L16.4817353,23.9885508 C16.5315313,23.9789712 16.5823012,23.9748193 16.633074,23.9761745 L16.633074,23.9749369 Z M20.4708693,25.7595931 C20.7668418,25.7483622 21.0433665,25.9003761 21.1822907,26.1506828 L21.1978126,26.1506828 L23.4381434,30.0244512 C23.1441599,30.1187504 22.8454188,30.1988841 22.5430459,30.2645506 C20.8304605,30.6358383 19.123049,30.5244519 17.5760308,30.0195007 L19.8111876,26.1519204 L19.8150681,26.1519204 C19.9451408,25.918815 20.1948832,25.7694088 20.4708693,25.7595931 L20.4708693,25.7595931 Z" id="Shape" stroke="#FFFFFF" stroke-width="0.25" fill="#FFFFFF"></path>
        </g>
    </g>
</svg>