<svg xmlns="http://www.w3.org/2000/svg" viewBox="0 0 60 60"><g fill="none" fill-rule="nonzero"><path fill="#326CE5" d="M29.856 9.55a2.853 2.853 0 00-1.072.264l-14.6 6.848a2.733 2.733 0 00-1.511 1.846L9.07 33.888c-.19.808.01 1.656.539 2.301l10.105 12.335a2.822 2.822 0 002.184 1.021l16.207-.002a2.822 2.822 0 002.184-1.02L50.39 36.185c.53-.646.73-1.494.54-2.301l-3.607-15.382a2.733 2.733 0 00-1.511-1.845L31.208 9.814a2.857 2.857 0 00-1.354-.265h.002z"/><path fill="#FFF" stroke="#FFF" stroke-width=".25" d="M29.5 15.545c-.487 0-.88.42-.88.936v.025c0 .07-.003.155 0 .215.01.297.077.526.12.8.074.589.136 1.078.097 1.53a.916.916 0 01-.285.435l-.022.356a11.81 11.81 0 00-1.59.236 11.448 11.448 0 00-5.749 3.144c-.107-.07-.213-.143-.318-.216-.158.02-.316.067-.523-.048-.394-.254-.752-.604-1.186-1.026-.199-.202-.342-.394-.58-.59-.053-.043-.135-.103-.194-.148a1.074 1.074 0 00-.614-.223.864.864 0 00-.7.297c-.305.365-.208.921.215 1.243l.013.01c.058.044.13.102.183.14.25.177.478.268.73.408.526.312.962.57 1.308.881.135.138.158.381.176.487l.282.24a10.538 10.538 0 00-1.795 7.601l-.369.103c-.097.12-.233.31-.378.366-.452.136-.962.186-1.578.248-.288.023-.536.01-.843.065-.067.013-.162.036-.235.052l-.008.002-.013.003c-.518.12-.851.577-.744 1.027.107.45.613.723 1.136.616l.013-.002.017-.006c.072-.015.164-.032.227-.048.3-.077.519-.19.79-.29.581-.2 1.064-.367 1.533-.433.197-.013.404.116.506.172l.384-.063c.86 2.547 2.666 4.705 5.075 6.067l-.16.367c.057.143.12.336.077.477-.17.424-.462.872-.796 1.371-.161.23-.326.409-.472.673-.035.062-.077.161-.112.227-.227.464-.06.998.375 1.198.436.2.979-.012 1.213-.475l.003-.003v-.001c.033-.067.08-.153.108-.215.126-.273.167-.508.254-.773.233-.559.362-1.147.681-1.513.088-.1.23-.139.38-.177l.199-.345a11.84 11.84 0 008.12.02l.188.324c.151.047.315.07.45.26.24.393.404.857.603 1.418.088.263.132.499.256.772.028.062.076.15.108.215.236.467.78.681 1.216.478.436-.2.602-.734.375-1.197-.033-.066-.08-.164-.115-.227-.145-.264-.31-.44-.47-.671-.334-.5-.611-.915-.782-1.338-.07-.22.013-.355.069-.498-.034-.037-.105-.242-.148-.34 2.417-1.372 4.223-3.547 5.073-6.11.114.017.312.05.376.062.133-.083.254-.192.494-.173.47.064.952.231 1.534.431.27.1.487.215.789.291.064.018.155.033.227.047l.017.007h.013c.523.108 1.028-.165 1.136-.614.107-.45-.225-.907-.744-1.028-.076-.016-.182-.043-.256-.056-.307-.056-.556-.043-.845-.066-.614-.062-1.125-.111-1.578-.248-.183-.069-.314-.28-.379-.366l-.355-.099c.189-1.31.126-2.644-.184-3.933a10.675 10.675 0 00-1.65-3.651l.314-.267c.013-.151.001-.31.164-.477.347-.312.783-.57 1.309-.881.25-.14.481-.232.732-.409.056-.04.133-.103.194-.148.422-.323.518-.879.215-1.243-.303-.363-.89-.398-1.312-.076-.06.045-.142.105-.195.15-.237.194-.383.387-.582.589-.433.42-.792.773-1.186 1.027-.171.095-.42.062-.533.057l-.336.227c-1.927-1.935-4.522-3.136-7.304-3.378-.008-.126-.015-.251-.02-.377-.115-.105-.254-.194-.289-.42-.039-.455.026-.94.1-1.53.041-.275.109-.503.12-.8.003-.069 0-.167-.001-.24 0-.517-.395-.937-.88-.937h0zm-1.103 6.535l-.261 4.42-.02.01a.742.742 0 01-.437.637.806.806 0 01-.794-.068l-.008.004-3.784-2.57a9.234 9.234 0 015.304-2.432h0zm2.206 0a9.308 9.308 0 015.272 2.436l-3.76 2.552-.013-.005a.805.805 0 01-.795.07.742.742 0 01-.44-.637l-.003-.003-.261-4.412h0zm-8.883 4.084l3.456 2.96-.003.018c.216.18.311.459.248.726a.758.758 0 01-.552.551l-.004.014-4.43 1.225a8.383 8.383 0 011.285-5.494h0zm15.533.003a8.538 8.538 0 011.325 5.476l-4.452-1.227-.004-.019a.758.758 0 01-.55-.551.724.724 0 01.246-.725l-.002-.009 3.437-2.945h0zm-8.463 3.185h1.416l.88 1.054-.316 1.314-1.27.585-1.276-.586-.316-1.315.882-1.052zm4.54 3.606c.06-.003.12.001.178.012l.008-.009 4.581.743c-.676 1.82-1.967 3.372-3.668 4.412l-1.779-4.114.005-.007a.716.716 0 01.054-.687.784.784 0 01.62-.35h0zm-7.697.017c.259.004.499.13.64.339.14.208.163.47.061.697l.013.016-1.76 4.072c-1.689-1.036-2.974-2.576-3.656-4.381l4.543-.74.008.01c.05-.009.1-.013.151-.012v-.001zm3.838 1.785a.778.778 0 01.711.39h.016l2.24 3.874a9.495 9.495 0 01-5.862-.005l2.235-3.867h.004a.78.78 0 01.656-.392h0z"/></g></svg>