<svg xmlns="http://www.w3.org/2000/svg" viewBox="0 0 112.81 33.99"><defs><style>.cls-1{fill:#0b2e4c}.cls-2{fill:none}.cls-3{fill:#0063b0}.cls-4{fill:#3fb764}.cls-6{fill:#1bbecc}.cls-8{fill:#963a85}.cls-10{fill:#ee4788}.cls-12{fill:#ef485d}</style></defs><g id="Layer_2" data-name="Layer 2"><g id="Layer_1-2" data-name="Layer 1"><path class="cls-1" d="M51 8.94l-5.94 7.26 6.08 8.14h-2.93l-5.08-6.93h-1.37v6.93H39.3V8.94h2.46v6.36h1.32l5.06-6.36zM53.65 23.66c-.77-.77-1-1.69-1-5.26s.22-4.49 1-5.26a3.1 3.1 0 0 1 2.35-.68h3.5a3.15 3.15 0 0 1 2.36.68c.77.77 1 1.7 1 5.26s-.22 4.49-1 5.26a3.1 3.1 0 0 1-2.36.68H56a3.06 3.06 0 0 1-2.35-.68zm1.62-1.58c.16.15.34.22 1 .22h2.92c.69 0 .86-.07 1-.22s.33-.64.33-3.68-.11-3.45-.33-3.67-.33-.22-1-.22h-2.9c-.68 0-.86.06-1 .22s-.33.63-.33 3.67.09 3.46.31 3.68zM65.88 24.34V12.46h2.29v1.43c1.5-1.23 2-1.45 3-1.45H73a2.63 2.63 0 0 1 2 .68c.46.46.71 1 .71 2.68v8.54h-2.23V16a1.57 1.57 0 0 0-.31-1.15c-.24-.24-.46-.33-1.23-.33H70.4a4.79 4.79 0 0 0-2.23.66v9.2zM84.46 23.82a.71.71 0 0 1-.82.57h-1.45a.7.7 0 0 1-.81-.57l-3.92-11.36H80l2.9 9.29h.27L86 12.46h2.38zM90.93 23.66c-.77-.77-1-1.69-1-5.26s.22-4.49 1-5.26a3.12 3.12 0 0 1 2.35-.68h3.5a3.13 3.13 0 0 1 2.36.68c.77.77 1 1.7 1 5.26s-.22 4.49-1 5.26a3.09 3.09 0 0 1-2.36.68h-3.5a3.08 3.08 0 0 1-2.35-.68zm1.63-1.58c.15.15.33.22 1 .22h2.94c.68 0 .86-.07 1-.22s.33-.64.33-3.68-.11-3.45-.33-3.67-.33-.22-1-.22h-2.93c-.68 0-.86.06-1 .22s-.33.63-.33 3.67.1 3.46.32 3.68zM104.29 12.46l3.12 8.65h.16l2.77-8.65h2.47l-4.87 13.75a2 2 0 0 1-2.13 1.48c-.77 0-1.76-.09-2.42-.15v-1.92h2.15c.29 0 .38-.13.49-.4l.33-.88-4.69-11.88z"/><path class="cls-2" d="M22.31 19a5.38 5.38 0 0 0-1.71 3 29.6 29.6 0 0 1 8.46 3.78l.72-.42v-1.04A27.32 27.32 0 0 1 22.31 19zM16.59 24.3a5.39 5.39 0 0 0-3.61 0 29.45 29.45 0 0 1 .94 9.12l1 .56.82-.48a26.9 26.9 0 0 1 .85-9.2zM7.28 14.25a5.35 5.35 0 0 0 1.73-3A29.24 29.24 0 0 1 .9 7.67l-.9.52V9a26.77 26.77 0 0 1 7.28 5.25zM22.37 14.39A29.35 29.35 0 0 1 29.78 9v-.81l-1.06-.61a27.17 27.17 0 0 1-8.16 3.69 5.4 5.4 0 0 0 1.81 3.12zM12 11.81a22.75 22.75 0 0 1-2.77 4.73A22.57 22.57 0 0 1 12 21.4a22.75 22.75 0 0 1 5.59 0 22.77 22.77 0 0 1 2.75-4.71 22.85 22.85 0 0 1-2.79-4.88 22.27 22.27 0 0 1-5.55 0zM7.22 18.86A29.27 29.27 0 0 1 0 24.15v1.24l.67.39A26.9 26.9 0 0 1 9 22a5.28 5.28 0 0 0-1.78-3.14z"/><path class="cls-3" d="M20.56 11.27a27.17 27.17 0 0 0 8.16-3.69l-6.49-3.75c-1.52 2.9-2.07 5.41-1.67 7.44zM7.4 3.92L.9 7.67A29.24 29.24 0 0 0 9 11.22c.4-1.94-.1-4.39-1.6-7.3zM17.55 11.84a25.32 25.32 0 0 1-1-2.9A5.44 5.44 0 0 1 13 9a23 23 0 0 1-1 2.85 22.27 22.27 0 0 0 5.55-.01z"/><path class="cls-4" d="M20.34 16.72a22 22 0 0 1 2-2.33 5.4 5.4 0 0 1-1.81-3.12 23.49 23.49 0 0 1-3 .57 22.85 22.85 0 0 0 2.81 4.88zM16.56 8.94c1.9-.66 3.78-2.35 5.56-5.17L15.6 0a29.58 29.58 0 0 0 .96 8.94zM22.31 19a27.32 27.32 0 0 0 7.47 5.32v-7.66c-3.37.13-5.9.92-7.47 2.34z"/><path class="cls-3" d="M20.56 11.27c-.4-2 .15-4.54 1.67-7.44l-.11-.06c-1.78 2.82-3.66 4.51-5.56 5.17a25.32 25.32 0 0 0 1 2.9 23.49 23.49 0 0 0 3-.57z"/><path d="M20.56 11.27c-.4-2 .15-4.54 1.67-7.44l-.11-.06c-1.78 2.82-3.66 4.51-5.56 5.17a25.32 25.32 0 0 0 1 2.9 23.49 23.49 0 0 0 3-.57z" fill="#006254"/><path class="cls-6" d="M22.37 14.39c1.54 1.32 4 2.11 7.41 2.22V9a29.35 29.35 0 0 0-7.41 5.39zM17.59 21.43a25.43 25.43 0 0 1 3 .6 5.38 5.38 0 0 1 1.71-3 22.53 22.53 0 0 1-2-2.28 22.77 22.77 0 0 0-2.71 4.68zM16.59 24.3a26.9 26.9 0 0 0-.88 9.21l6.62-3.82c-1.79-2.88-3.74-4.69-5.74-5.39z"/><path class="cls-4" d="M20.34 16.72a22.53 22.53 0 0 0 2 2.28c1.57-1.42 4.1-2.21 7.47-2.34v-.05c-3.41-.11-5.87-.9-7.41-2.22a22 22 0 0 0-2.06 2.33z"/><path d="M20.34 16.72a22.53 22.53 0 0 0 2 2.28c1.57-1.42 4.1-2.21 7.47-2.34v-.05c-3.41-.11-5.87-.9-7.41-2.22a22 22 0 0 0-2.06 2.33z" fill="#00ab60"/><path class="cls-8" d="M22.41 29.65l6.65-3.84A29.6 29.6 0 0 0 20.6 22c-.39 2.05.17 4.6 1.81 7.65zM9 22a26.9 26.9 0 0 0-8.32 3.8l6.55 3.78C8.8 26.6 9.39 24 9 22zM12 21.4a22.09 22.09 0 0 1 1 2.91 5.39 5.39 0 0 1 3.61 0 25 25 0 0 1 1-2.87A22.75 22.75 0 0 0 12 21.4z"/><path class="cls-6" d="M16.59 24.3c2 .68 3.95 2.51 5.74 5.39h.08c-1.64-3-2.2-5.6-1.81-7.62a25.43 25.43 0 0 0-3-.6 25 25 0 0 0-1.01 2.83z"/><path d="M16.59 24.3c2 .68 3.95 2.51 5.74 5.39h.08c-1.64-3-2.2-5.6-1.81-7.62a25.43 25.43 0 0 0-3-.6 25 25 0 0 0-1.01 2.83z" fill="#523e77"/><path class="cls-10" d="M13 24.31c-1.92.67-3.83 2.42-5.64 5.32l6.58 3.8a29.45 29.45 0 0 0-.94-9.12zM7.28 14.25A26.77 26.77 0 0 0 0 9v7.56c3.27-.16 5.74-.94 7.28-2.31zM9.25 16.54a22.93 22.93 0 0 1-2 2.32A5.28 5.28 0 0 1 9 22a21.91 21.91 0 0 1 3-.58 22.57 22.57 0 0 0-2.75-4.88z"/><path class="cls-8" d="M9 22c.4 2.06-.19 4.62-1.77 7.58l.12.07c1.8-2.92 3.71-4.65 5.65-5.34a22.09 22.09 0 0 0-1-2.91 21.91 21.91 0 0 0-3 .6z"/><path d="M9 22c.4 2.06-.19 4.62-1.77 7.58l.12.07c1.8-2.92 3.71-4.65 5.65-5.34a22.09 22.09 0 0 0-1-2.91 21.91 21.91 0 0 0-3 .6z" fill="#832d77"/><path class="cls-12" d="M13 9a27 27 0 0 0 .94-8.86L7.46 3.89C9.2 6.59 11.09 8.31 13 9zM12 11.81a23.51 23.51 0 0 1-3-.59 5.35 5.35 0 0 1-1.73 3 22.64 22.64 0 0 1 2 2.29 22.75 22.75 0 0 0 2.73-4.7zM7.22 18.86c-1.5-1.32-3.9-2.11-7.22-2.26v7.55a29.27 29.27 0 0 0 7.22-5.29z"/><path class="cls-3" d="M13 9c-1.91-.69-3.8-2.41-5.54-5.11H7.4c1.5 2.91 2 5.36 1.61 7.3a23.51 23.51 0 0 0 3 .59A23 23 0 0 0 13 9z"/><path class="cls-12" d="M13 9c-1.91-.69-3.8-2.41-5.54-5.11H7.4c1.5 2.91 2 5.36 1.61 7.3a23.51 23.51 0 0 0 3 .59A23 23 0 0 0 13 9z"/><path class="cls-10" d="M7.28 14.25c-1.54 1.37-4 2.15-7.28 2.3v.05c3.32.15 5.72.94 7.22 2.26a22.93 22.93 0 0 0 2-2.32 22.64 22.64 0 0 0-1.94-2.29z"/><path d="M7.28 14.25c-1.54 1.37-4 2.15-7.28 2.3v.05c3.32.15 5.72.94 7.22 2.26a22.93 22.93 0 0 0 2-2.32 22.64 22.64 0 0 0-1.94-2.29z" fill="#ec2252"/></g></g></svg>