<svg xmlns="http://www.w3.org/2000/svg" viewBox="0 0 112.81 33.99"><defs><style>.cls-1{fill:#0b2e4c;}.cls-2{fill:none;}.cls-3{fill:#0063b0;}.cls-4{fill:#3fb764;}.cls-5{fill:#006254;}.cls-6{fill:#1bbecc;}.cls-7{fill:#00ab60;}.cls-8{fill:#963a85;}.cls-9{fill:#523e77;}.cls-10{fill:#ee4788;}.cls-11{fill:#832d77;}.cls-12{fill:#ef485d;}.cls-13{fill:#ec2252;}</style></defs><title>Kong-Konvoy Logo</title><g id="Layer_2" data-name="Layer 2"><g id="Layer_1-2" data-name="Layer 1"><path class="cls-1" d="M51,8.94,45.06,16.2l6.08,8.14H48.21l-5.08-6.93H41.76v6.93H39.3V8.94h2.46V15.3h1.32l5.06-6.36Z"/><path class="cls-1" d="M53.65,23.66c-.77-.77-1-1.69-1-5.26s.22-4.49,1-5.26A3.1,3.1,0,0,1,56,12.46h3.5a3.15,3.15,0,0,1,2.36.68c.77.77,1,1.7,1,5.26s-.22,4.49-1,5.26a3.1,3.1,0,0,1-2.36.68H56A3.06,3.06,0,0,1,53.65,23.66Zm1.62-1.58c.16.15.34.22,1,.22h2.92c.69,0,.86-.07,1-.22s.33-.64.33-3.68-.11-3.45-.33-3.67-.33-.22-1-.22H56.29c-.68,0-.86.06-1,.22s-.33.63-.33,3.67S55.05,21.86,55.27,22.08Z"/><path class="cls-1" d="M65.88,24.34V12.46h2.29v1.43c1.5-1.23,2-1.45,3-1.45H73a2.63,2.63,0,0,1,2,.68c.46.46.71,1,.71,2.68v8.54H73.48V16a1.57,1.57,0,0,0-.31-1.15c-.24-.24-.46-.33-1.23-.33H70.4a4.79,4.79,0,0,0-2.23.66v9.2Z"/><path class="cls-1" d="M84.46,23.82a.71.71,0,0,1-.82.57H82.19a.7.7,0,0,1-.81-.57L77.46,12.46H80l2.9,9.29h.27L86,12.46h2.38Z"/><path class="cls-1" d="M90.93,23.66c-.77-.77-1-1.69-1-5.26s.22-4.49,1-5.26a3.12,3.12,0,0,1,2.35-.68h3.5a3.13,3.13,0,0,1,2.36.68c.77.77,1,1.7,1,5.26s-.22,4.49-1,5.26a3.09,3.09,0,0,1-2.36.68h-3.5A3.08,3.08,0,0,1,90.93,23.66Zm1.63-1.58c.15.15.33.22,1,.22H96.5c.68,0,.86-.07,1-.22s.33-.64.33-3.68-.11-3.45-.33-3.67-.33-.22-1-.22H93.57c-.68,0-.86.06-1,.22s-.33.63-.33,3.67S92.34,21.86,92.56,22.08Z"/><path class="cls-1" d="M104.29,12.46l3.12,8.65h.16l2.77-8.65h2.47l-4.87,13.75a2,2,0,0,1-2.13,1.48c-.77,0-1.76-.09-2.42-.15V25.62h2.15c.29,0,.38-.13.49-.4l.33-.88-4.69-11.88Z"/><path class="cls-2" d="M22.31,19a5.38,5.38,0,0,0-1.71,3,29.6,29.6,0,0,1,8.46,3.78l.72-.42V24.32A27.32,27.32,0,0,1,22.31,19Z"/><path class="cls-2" d="M16.59,24.3a5.39,5.39,0,0,0-3.61,0,29.45,29.45,0,0,1,.94,9.12l1,.56.82-.48A26.9,26.9,0,0,1,16.59,24.3Z"/><path class="cls-2" d="M7.28,14.25a5.35,5.35,0,0,0,1.73-3A29.24,29.24,0,0,1,.9,7.67L0,8.19V9A26.77,26.77,0,0,1,7.28,14.25Z"/><path class="cls-2" d="M22.37,14.39A29.35,29.35,0,0,1,29.78,9V8.19l-1.06-.61a27.17,27.17,0,0,1-8.16,3.69A5.4,5.4,0,0,0,22.37,14.39Z"/><path class="cls-2" d="M12,11.81a22.75,22.75,0,0,1-2.77,4.73A22.57,22.57,0,0,1,12,21.4a22.75,22.75,0,0,1,5.59,0,22.77,22.77,0,0,1,2.75-4.71,22.85,22.85,0,0,1-2.79-4.88A22.27,22.27,0,0,1,12,11.81Z"/><path class="cls-2" d="M7.22,18.86A29.27,29.27,0,0,1,0,24.15v1.24l.67.39A26.9,26.9,0,0,1,9,22,5.28,5.28,0,0,0,7.22,18.86Z"/><path class="cls-3" d="M20.56,11.27a27.17,27.17,0,0,0,8.16-3.69L22.23,3.83C20.71,6.73,20.16,9.24,20.56,11.27Z"/><path class="cls-3" d="M7.4,3.92.9,7.67A29.24,29.24,0,0,0,9,11.22C9.4,9.28,8.9,6.83,7.4,3.92Z"/><path class="cls-3" d="M17.55,11.84a25.32,25.32,0,0,1-1-2.9A5.44,5.44,0,0,1,13,9a23,23,0,0,1-1,2.85A22.27,22.27,0,0,0,17.55,11.84Z"/><path class="cls-4" d="M20.34,16.72a22,22,0,0,1,2-2.33,5.4,5.4,0,0,1-1.81-3.12,23.49,23.49,0,0,1-3,.57A22.85,22.85,0,0,0,20.34,16.72Z"/><path class="cls-4" d="M16.56,8.94c1.9-.66,3.78-2.35,5.56-5.17L15.6,0A29.58,29.58,0,0,0,16.56,8.94Z"/><path class="cls-4" d="M22.31,19a27.32,27.32,0,0,0,7.47,5.32V16.66C26.41,16.79,23.88,17.58,22.31,19Z"/><path class="cls-3" d="M20.56,11.27c-.4-2,.15-4.54,1.67-7.44l-.11-.06c-1.78,2.82-3.66,4.51-5.56,5.17a25.32,25.32,0,0,0,1,2.9A23.49,23.49,0,0,0,20.56,11.27Z"/><path class="cls-5" d="M20.56,11.27c-.4-2,.15-4.54,1.67-7.44l-.11-.06c-1.78,2.82-3.66,4.51-5.56,5.17a25.32,25.32,0,0,0,1,2.9A23.49,23.49,0,0,0,20.56,11.27Z"/><path class="cls-6" d="M22.37,14.39c1.54,1.32,4,2.11,7.41,2.22V9A29.35,29.35,0,0,0,22.37,14.39Z"/><path class="cls-6" d="M17.59,21.43a25.43,25.43,0,0,1,3,.6,5.38,5.38,0,0,1,1.71-3,22.53,22.53,0,0,1-2-2.28A22.77,22.77,0,0,0,17.59,21.43Z"/><path class="cls-6" d="M16.59,24.3a26.9,26.9,0,0,0-.88,9.21l6.62-3.82C20.54,26.81,18.59,25,16.59,24.3Z"/><path class="cls-4" d="M20.34,16.72a22.53,22.53,0,0,0,2,2.28c1.57-1.42,4.1-2.21,7.47-2.34v-.05c-3.41-.11-5.87-.9-7.41-2.22A22,22,0,0,0,20.34,16.72Z"/><path class="cls-7" d="M20.34,16.72a22.53,22.53,0,0,0,2,2.28c1.57-1.42,4.1-2.21,7.47-2.34v-.05c-3.41-.11-5.87-.9-7.41-2.22A22,22,0,0,0,20.34,16.72Z"/><path class="cls-8" d="M22.41,29.65l6.65-3.84A29.6,29.6,0,0,0,20.6,22C20.21,24.05,20.77,26.6,22.41,29.65Z"/><path class="cls-8" d="M9,22a26.9,26.9,0,0,0-8.32,3.8l6.55,3.78C8.8,26.6,9.39,24,9,22Z"/><path class="cls-8" d="M12,21.4a22.09,22.09,0,0,1,1,2.91,5.39,5.39,0,0,1,3.61,0,25,25,0,0,1,1-2.87A22.75,22.75,0,0,0,12,21.4Z"/><path class="cls-6" d="M16.59,24.3c2,.68,3.95,2.51,5.74,5.39l.08,0c-1.64-3-2.2-5.6-1.81-7.62a25.43,25.43,0,0,0-3-.6A25,25,0,0,0,16.59,24.3Z"/><path class="cls-9" d="M16.59,24.3c2,.68,3.95,2.51,5.74,5.39l.08,0c-1.64-3-2.2-5.6-1.81-7.62a25.43,25.43,0,0,0-3-.6A25,25,0,0,0,16.59,24.3Z"/><path class="cls-10" d="M13,24.31c-1.92.67-3.83,2.42-5.64,5.32l6.58,3.8A29.45,29.45,0,0,0,13,24.31Z"/><path class="cls-10" d="M7.28,14.25A26.77,26.77,0,0,0,0,9v7.56C3.27,16.4,5.74,15.62,7.28,14.25Z"/><path class="cls-10" d="M9.25,16.54a22.93,22.93,0,0,1-2,2.32A5.28,5.28,0,0,1,9,22a21.91,21.91,0,0,1,3-.58A22.57,22.57,0,0,0,9.25,16.54Z"/><path class="cls-8" d="M9,22c.4,2.06-.19,4.62-1.77,7.58l.12.07C9.15,26.73,11.06,25,13,24.31a22.09,22.09,0,0,0-1-2.91A21.91,21.91,0,0,0,9,22Z"/><path class="cls-11" d="M9,22c.4,2.06-.19,4.62-1.77,7.58l.12.07C9.15,26.73,11.06,25,13,24.31a22.09,22.09,0,0,0-1-2.91A21.91,21.91,0,0,0,9,22Z"/><path class="cls-12" d="M13,9A27,27,0,0,0,13.94.14L7.46,3.89C9.2,6.59,11.09,8.31,13,9Z"/><path class="cls-12" d="M12,11.81a23.51,23.51,0,0,1-3-.59,5.35,5.35,0,0,1-1.73,3,22.64,22.64,0,0,1,2,2.29A22.75,22.75,0,0,0,12,11.81Z"/><path class="cls-12" d="M7.22,18.86C5.72,17.54,3.32,16.75,0,16.6v7.55A29.27,29.27,0,0,0,7.22,18.86Z"/><path class="cls-3" d="M13,9C11.09,8.31,9.2,6.59,7.46,3.89l-.06,0c1.5,2.91,2,5.36,1.61,7.3a23.51,23.51,0,0,0,3,.59A23,23,0,0,0,13,9Z"/><path class="cls-12" d="M13,9C11.09,8.31,9.2,6.59,7.46,3.89l-.06,0c1.5,2.91,2,5.36,1.61,7.3a23.51,23.51,0,0,0,3,.59A23,23,0,0,0,13,9Z"/><path class="cls-10" d="M7.28,14.25c-1.54,1.37-4,2.15-7.28,2.3v.05c3.32.15,5.72.94,7.22,2.26a22.93,22.93,0,0,0,2-2.32A22.64,22.64,0,0,0,7.28,14.25Z"/><path class="cls-13" d="M7.28,14.25c-1.54,1.37-4,2.15-7.28,2.3v.05c3.32.15,5.72.94,7.22,2.26a22.93,22.93,0,0,0,2-2.32A22.64,22.64,0,0,0,7.28,14.25Z"/></g></g></svg>