<svg width="96" height="25" xmlns="http://www.w3.org/2000/svg"><g fill="#000" fill-rule="nonzero" fill-opacity=".85"><path d="M16 .57L8.313 9.964l7.868 10.534H12.39L5.815 11.53H4.042v8.968H.86V.569h3.183V8.8h1.709L12.299.57zM19.43 19.619c-.997-.997-1.295-2.187-1.295-6.807 0-4.62.285-5.81 1.294-6.807a4.012 4.012 0 0 1 3.042-.88H27a4.076 4.076 0 0 1 3.054.88c.997.996 1.294 2.2 1.294 6.807s-.284 5.81-1.294 6.807a4.012 4.012 0 0 1-3.054.88h-4.53a3.96 3.96 0 0 1-3.04-.88zm2.096-2.045c.207.194.44.285 1.294.285h3.779c.893 0 1.113-.09 1.294-.285.181-.194.427-.828.427-4.762 0-3.934-.142-4.465-.427-4.75-.285-.284-.427-.284-1.294-.284h-3.753c-.88 0-1.113.077-1.294.284-.181.207-.427.816-.427 4.75s.116 4.477.4 4.762zM35.256 20.499V5.125h2.964v1.85C40.161 5.384 40.808 5.1 42.102 5.1h2.369a3.404 3.404 0 0 1 2.588.88c.595.595.919 1.294.919 3.468V20.5h-2.886V9.706a2.032 2.032 0 0 0-.401-1.488c-.311-.31-.596-.427-1.592-.427h-1.993a6.199 6.199 0 0 0-2.886.854V20.55l-2.964-.052zM59.301 19.826a.919.919 0 0 1-1.061.738h-1.876a.906.906 0 0 1-1.049-.738L50.242 5.125h3.287l3.753 12.022h.35l3.662-12.022h3.08l-5.073 14.7zM67.674 19.619c-.996-.997-1.294-2.187-1.294-6.807 0-4.62.285-5.81 1.294-6.807a4.038 4.038 0 0 1 3.041-.88h4.53a4.05 4.05 0 0 1 3.054.88c.996.996 1.294 2.2 1.294 6.807s-.285 5.81-1.294 6.807a3.999 3.999 0 0 1-3.054.88h-4.53a3.986 3.986 0 0 1-3.04-.88zm2.11-2.045c.194.194.427.285 1.294.285h3.804c.88 0 1.113-.09 1.294-.285.182-.194.428-.828.428-4.762 0-3.934-.143-4.465-.428-4.75-.284-.284-.427-.284-1.294-.284h-3.791c-.88 0-1.113.077-1.295.284-.18.207-.427.816-.427 4.75s.13 4.477.415 4.762zM84.964 5.125L89 16.319h.207l3.585-11.194h3.196l-6.302 17.794a2.588 2.588 0 0 1-2.756 1.915c-.997 0-2.278-.116-3.132-.194v-2.485h2.782c.375 0 .492-.168.634-.517l.427-1.14-6.07-15.373h3.392z"/></g></svg>