<svg width="155" height="47" viewBox="0 0 155 47" xmlns="http://www.w3.org/2000/svg"><g fill="none" fill-rule="evenodd"><path d="M31.332 26.681a7.564 7.564 0 0 0-2.366 4.262A41.669 41.669 0 0 1 40.85 36.24l1.018-.588v-1.498a38.152 38.152 0 0 1-10.536-7.473zM23.305 34.121a7.548 7.548 0 0 0-5.065 0 41.578 41.578 0 0 1 1.316 12.803l1.357.828 1.15-.67a37.804 37.804 0 0 1 1.242-12.96zM10.229 20.011a7.572 7.572 0 0 0 2.425-4.287A41.189 41.189 0 0 1 1.266 10.76L0 11.503v1.126a37.763 37.763 0 0 1 10.229 7.382zM31.448 20.21a41.214 41.214 0 0 1 10.42-7.614v-1.093l-1.507-.827a37.829 37.829 0 0 1-11.453 5.18 7.54 7.54 0 0 0 2.54 4.354zM16.874 16.593a31.655 31.655 0 0 1-3.88 6.62 31.721 31.721 0 0 1 3.864 6.828 31.606 31.606 0 0 1 7.854 0 31.589 31.589 0 0 1 3.848-6.62 31.978 31.978 0 0 1-3.906-6.844c-2.583.323-5.196.329-7.78.016zM10.146 26.483A41.38 41.38 0 0 1 0 33.93v1.738l.943.546A38.003 38.003 0 0 1 12.63 30.87a7.498 7.498 0 0 0-2.483-4.386z"/><path d="M28.874 15.823a37.829 37.829 0 0 0 11.454-5.18L31.225 5.37c-2.135 4.072-2.913 7.614-2.35 10.452zM10.394 5.503L1.266 10.76a41.189 41.189 0 0 0 11.388 4.965c.587-2.69-.157-6.124-2.26-10.22zM24.654 16.634a33.294 33.294 0 0 1-1.39-4.08 7.54 7.54 0 0 1-4.966 0 32.59 32.59 0 0 1-1.415 4.014c2.578.34 5.187.362 7.77.066z" fill="#0063B0" fill-rule="nonzero"/><path d="M28.56 23.479a33.625 33.625 0 0 1 2.888-3.27 7.54 7.54 0 0 1-2.54-4.386 32.756 32.756 0 0 1-4.221.828 31.978 31.978 0 0 0 3.873 6.828zM23.263 12.554c2.657-.918 5.305-3.31 7.813-7.257L21.906 0c-.19 4.23.268 8.463 1.357 12.554zM31.332 26.681a38.152 38.152 0 0 0 10.502 7.449V23.37c-4.742.207-8.3 1.324-10.502 3.31z" fill="#3FB764" fill-rule="nonzero"/><path d="M28.874 15.823c-.562-2.838.216-6.38 2.343-10.452l-.141-.074c-2.483 3.955-5.156 6.339-7.813 7.257.375 1.39.84 2.752 1.39 4.08a32.756 32.756 0 0 0 4.221-.81z" fill="#0063B0" fill-rule="nonzero"/><path d="M28.874 15.823c-.562-2.838.216-6.38 2.343-10.452l-.141-.074c-2.483 3.955-5.156 6.339-7.813 7.257.375 1.39.84 2.752 1.39 4.08a32.756 32.756 0 0 0 4.221-.81z" fill="#006254" fill-rule="nonzero"/><path d="M31.448 20.21c2.169 1.862 5.62 2.962 10.42 3.12V12.57a41.214 41.214 0 0 0-10.42 7.639z" fill="#1BBECC" fill-rule="nonzero"/><g fill="#000" fill-opacity=".85" fill-rule="nonzero"><path d="M68.28 12.615l-8.302 10.147 8.498 11.377H64.38l-7.1-9.686h-1.915v9.686h-3.438V12.615h3.438v8.889h1.845l7.072-8.889zM71.984 33.188c-1.076-1.076-1.398-2.362-1.398-7.351 0-4.99.308-6.276 1.398-7.352a4.333 4.333 0 0 1 3.284-.95h4.892a4.403 4.403 0 0 1 3.298.95c1.077 1.076 1.398 2.376 1.398 7.352 0 4.975-.307 6.275-1.398 7.351a4.333 4.333 0 0 1-3.298.95h-4.892a4.277 4.277 0 0 1-3.284-.95zm2.264-2.208c.224.21.475.308 1.398.308h4.08c.965 0 1.203-.098 1.398-.308.196-.21.462-.894.462-5.143 0-4.25-.154-4.822-.462-5.13-.307-.307-.46-.307-1.397-.307h-4.053c-.95 0-1.202.084-1.398.307-.196.224-.461.88-.461 5.13 0 4.249.125 4.836.433 5.143zM89.077 34.139V17.535h3.2v1.998c2.097-1.719 2.796-2.026 4.194-2.026h2.557a3.676 3.676 0 0 1 2.796.95c.642.643.992 1.398.992 3.746v11.936h-3.117V22.482a2.194 2.194 0 0 0-.433-1.607c-.336-.335-.643-.461-1.72-.461h-2.152a6.695 6.695 0 0 0-3.116.922v12.859l-3.201-.056zM115.045 33.412c-.099.535-.61.89-1.146.797h-2.026a.978.978 0 0 1-1.132-.797l-5.48-15.877h3.55l4.054 12.984h.377l3.956-12.984h3.326l-5.479 15.877zM124.088 33.188c-1.076-1.076-1.398-2.362-1.398-7.351 0-4.99.308-6.276 1.398-7.352a4.36 4.36 0 0 1 3.285-.95h4.891a4.375 4.375 0 0 1 3.299.95c1.076 1.076 1.397 2.376 1.397 7.352 0 4.975-.307 6.275-1.397 7.351a4.319 4.319 0 0 1-3.299.95h-4.891a4.305 4.305 0 0 1-3.285-.95zm2.278-2.208c.21.21.461.308 1.398.308h4.109c.95 0 1.202-.098 1.398-.308.195-.21.46-.894.46-5.143 0-4.25-.153-4.822-.46-5.13-.308-.307-.462-.307-1.398-.307h-4.095c-.95 0-1.202.084-1.398.307-.195.224-.461.88-.461 5.13 0 4.249.14 4.836.447 5.143zM142.76 17.535l4.361 12.09h.224l3.871-12.09h3.453l-6.807 19.217a2.795 2.795 0 0 1-2.977 2.069c-1.076 0-2.46-.126-3.382-.21v-2.683h3.005c.405 0 .53-.182.685-.56l.46-1.23-6.554-16.603h3.662z"/></g><path d="M24.712 30.1c1.423.187 2.832.463 4.22.827a7.564 7.564 0 0 1 2.4-4.262 32.06 32.06 0 0 1-2.772-3.203 31.589 31.589 0 0 0-3.848 6.637zM23.305 34.121a37.804 37.804 0 0 0-1.242 12.944l9.303-5.363c-2.516-4.047-5.256-6.62-8.061-7.58z" fill="#1BBECC" fill-rule="nonzero"/><path d="M28.56 23.479a32.06 32.06 0 0 0 2.772 3.202c2.202-1.986 5.794-3.103 10.502-3.31v-.066c-4.8-.157-8.275-1.258-10.419-3.12a33.625 33.625 0 0 0-2.855 3.294z" fill="#3FB764" fill-rule="nonzero"/><path d="M28.56 23.479a32.06 32.06 0 0 0 2.772 3.202c2.202-1.986 5.794-3.103 10.502-3.31v-.066c-4.8-.157-8.275-1.258-10.419-3.12a33.625 33.625 0 0 0-2.855 3.294z" fill="#00AB60" fill-rule="nonzero"/><path d="M31.448 41.636L40.8 36.24a41.669 41.669 0 0 0-11.834-5.297c-.58 2.83.206 6.414 2.482 10.693zM12.629 30.869a38.003 38.003 0 0 0-11.686 5.33l9.195 5.313c2.218-4.155 3.045-7.755 2.491-10.643zM16.858 30.058a33.857 33.857 0 0 1 1.349 4.088 7.548 7.548 0 0 1 5.065 0 31.34 31.34 0 0 1 1.407-4.022 31.606 31.606 0 0 0-7.821-.066z" fill="#963A85" fill-rule="nonzero"/><path d="M23.305 34.121c2.805.96 5.545 3.534 8.06 7.581l.1-.066c-2.293-4.279-3.079-7.862-2.533-10.693a34.312 34.312 0 0 0-4.22-.827 31.34 31.34 0 0 0-1.407 4.005z" fill="#1BBECC" fill-rule="nonzero"/><path d="M23.305 34.121c2.805.96 5.545 3.534 8.06 7.581l.1-.066c-2.293-4.279-3.079-7.862-2.533-10.693a34.312 34.312 0 0 0-4.22-.827 31.34 31.34 0 0 0-1.407 4.005z" fill="#523E77" fill-rule="nonzero"/><path d="M18.207 34.146c-2.706.944-5.388 3.385-7.928 7.448l9.244 5.338a41.578 41.578 0 0 0-1.316-12.786zM10.229 20.011A37.763 37.763 0 0 0 0 12.629v10.61c4.593-.199 8.06-1.3 10.229-3.228zM12.993 23.23a34.593 34.593 0 0 1-2.847 3.253 7.498 7.498 0 0 1 2.483 4.378 31.274 31.274 0 0 1 4.229-.828 31.721 31.721 0 0 0-3.865-6.803z" fill="#EE4788" fill-rule="nonzero"/><path d="M12.629 30.869c.554 2.888-.273 6.488-2.483 10.643l.174.099c2.54-4.08 5.222-6.521 7.928-7.448a33.857 33.857 0 0 0-1.382-4.089 31.274 31.274 0 0 0-4.237.795z" fill="#963A85" fill-rule="nonzero"/><path d="M12.629 30.869c.554 2.888-.273 6.488-2.483 10.643l.174.099c2.54-4.08 5.222-6.521 7.928-7.448a33.857 33.857 0 0 0-1.382-4.089 31.274 31.274 0 0 0-4.237.795z" fill="#832D77" fill-rule="nonzero"/><path d="M18.29 12.58A37.713 37.713 0 0 0 19.572.165L10.47 5.429c2.45 3.832 5.098 6.24 7.82 7.15zM16.874 16.593a33.103 33.103 0 0 1-4.22-.827 7.572 7.572 0 0 1-2.425 4.253 32.177 32.177 0 0 1 2.764 3.22 31.655 31.655 0 0 0 3.881-6.646zM10.146 26.483C8.036 24.629 4.668 23.52 0 23.313v10.618a41.38 41.38 0 0 0 10.146-7.448z" fill="#EF485D" fill-rule="nonzero"/><path d="M18.29 12.58c-2.723-.911-5.371-3.311-7.821-7.118l-.075.041c2.103 4.097 2.847 7.531 2.26 10.221 1.387.367 2.797.644 4.22.828a32.59 32.59 0 0 0 1.416-3.973z" fill="#0063B0" fill-rule="nonzero"/><path d="M18.29 12.58c-2.723-.911-5.371-3.311-7.821-7.118l-.075.041c2.103 4.097 2.847 7.531 2.26 10.221 1.387.367 2.797.644 4.22.828a32.59 32.59 0 0 0 1.416-3.973z" fill="#EF485D" fill-rule="nonzero"/><path d="M10.229 20.011C8.061 21.939 4.593 23.04 0 23.239v.074c4.668.207 8.036 1.316 10.146 3.178a34.593 34.593 0 0 0 2.847-3.26 32.177 32.177 0 0 0-2.764-3.22z" fill="#EE4788" fill-rule="nonzero"/><path d="M10.229 20.011C8.061 21.939 4.593 23.04 0 23.239v.074c4.668.207 8.036 1.316 10.146 3.178a34.593 34.593 0 0 0 2.847-3.26 32.177 32.177 0 0 0-2.764-3.22z" fill="#EC2252" fill-rule="nonzero"/></g></svg>