<?xml version="1.0" encoding="UTF-8"?>
<svg width="16px" height="13px" viewBox="0 0 16 13" version="1.1" xmlns="http://www.w3.org/2000/svg" xmlns:xlink="http://www.w3.org/1999/xlink">
    <!-- Generator: Sketch 56.3 (81716) - https://sketch.com -->
    <title>icn-twitter</title>
    <desc>Created with Sketch.</desc>
    <g id="Page-1" stroke="none" stroke-width="1" fill="none" fill-rule="evenodd">
        <g id="Extra-Large" transform="translate(-892.000000, -3785.000000)" fill="#AAB4BB">
            <g id="---Footer" transform="translate(-229.000000, 3456.000000)">
                <g id="social+github" transform="translate(1081.000000, 326.821192)">
                    <g id="social" transform="translate(0.000000, 0.916115)">
                        <path d="M56,3.24202463 C55.4113528,3.48164856 54.7791948,3.64338325 54.1145286,3.71531625 C54.792198,3.34328063 55.3128282,2.75407152 55.5583896,2.05215211 C54.9237309,2.39623924 54.2215554,2.64731746 53.4738685,2.78156184 C52.8747187,2.19739262 52.0215054,1.83222958 51.0767692,1.83222958 C49.263816,1.83222958 47.7949487,3.17833873 47.7949487,4.83921201 C47.7949487,5.07471239 47.8234559,5.3047147 47.8794699,5.52463723 C45.1512878,5.39909812 42.7326832,4.20189484 41.1132783,2.38249408 C40.8312078,2.82692086 40.6691673,3.34328063 40.6691673,3.89446147 C40.6691673,4.93817715 41.2488122,5.8581864 42.1290323,6.39791294 C41.5913978,6.38187693 41.0852713,6.24717438 40.6426607,6.02175378 C40.6421605,6.03412443 40.6421605,6.04741141 40.6421605,6.05932388 C40.6421605,7.51676882 41.7734434,8.73229897 43.2753188,9.00857665 C43.0002501,9.07684427 42.7101775,9.11395619 42.4106027,9.11395619 C42.1985496,9.11395619 41.9934984,9.09517114 41.7934484,9.06035008 C42.2105526,10.2543461 43.4233558,11.1239565 44.8592148,11.1486978 C43.7364341,11.9550804 42.3210803,12.4366191 40.7831958,12.4366191 C40.5181295,12.4366191 40.2565641,12.4224158 40,12.3944673 C41.4523631,13.2466671 43.1777944,13.7447 45.0317579,13.7447 C51.0692673,13.7447 54.3715929,9.16252242 54.3715929,5.18833903 C54.3715929,5.0582182 54.3675919,4.92809737 54.3615904,4.79889288 C55.0032508,4.37508384 55.5593898,3.84589525 56,3.24202463 L56,3.24202463 Z" id="icn-twitter"></path>
                    </g>
                </g>
            </g>
        </g>
    </g>
</svg>