<?xml version="1.0" encoding="UTF-8"?>
<svg width="16px" height="16px" viewBox="0 0 16 16" version="1.1" xmlns="http://www.w3.org/2000/svg" xmlns:xlink="http://www.w3.org/1999/xlink">
    <!-- Generator: Sketch 56.3 (81716) - https://sketch.com -->
    <title>icn-github</title>
    <desc>Created with Sketch.</desc>
    <g id="Page-1" stroke="none" stroke-width="1" fill="none" fill-rule="evenodd">
        <g id="Extra-Large" transform="translate(-972.000000, -3783.000000)" fill="#AAB4BB">
            <g id="---Footer" transform="translate(-229.000000, 3456.000000)">
                <g id="social+github" transform="translate(1081.000000, 326.821192)">
                    <g id="social" transform="translate(0.000000, 0.916115)">
                        <path d="M127.9995,-8.13673387e-16 C123.581895,-8.13673387e-16 120,3.36428285 120,7.51444187 C120,10.8340994 122.291573,13.6506646 125.471368,14.6446359 C125.871468,14.713218 125.997499,14.4905609 125.997499,14.2913909 C125.997499,14.1128894 126.0015,13.6140248 125.997499,12.986921 C123.772443,13.4411602 123.311328,11.9971773 123.311328,11.9971773 C122.947737,11.1290965 122.423606,10.8979841 122.423606,10.8979841 C121.697424,10.4320013 122.47812,10.4409264 122.47812,10.4409264 C123.28082,10.4940071 123.703926,11.2155288 123.703926,11.2155288 C124.417604,12.3631053 125.575894,12.0314684 126.031508,11.8398142 C126.104526,11.3541023 126.311578,11.0229351 126.540135,10.8350388 C124.763691,10.6452636 122.896224,10.0007794 122.896224,7.12126891 C122.896224,6.30063192 123.207802,5.63031195 123.71943,5.10514186 C123.636909,4.91536662 123.36184,4.15109851 123.797949,3.11625976 C123.797949,3.11625976 124.469617,2.91427126 125.997499,3.88710424 C126.635659,3.72034629 127.32033,3.63720219 128.0005,3.63438375 C128.68017,3.63720219 129.364341,3.72034629 130.003501,3.88710424 C131.531383,2.914741 132.202051,3.11625976 132.202051,3.11625976 C132.63816,4.15109851 132.363591,4.91536662 132.28157,5.10514186 C132.793198,5.63031195 133.103776,6.30063192 133.103776,7.12126891 C133.103776,10.0082952 131.233308,10.6433846 129.450863,10.8289322 C129.737934,11.0614539 129.9985,11.5124049 129.9985,12.213258 L129.9985,14.2932698 C129.9985,14.4943188 130.127532,14.7165062 130.533633,14.6436964 C133.710428,13.6483159 136,10.8331599 136,7.51444187 C136,3.36428285 132.418105,-8.13673387e-16 127.9995,-8.13673387e-16 L127.9995,-8.13673387e-16 Z" id="icn-github"></path>
                    </g>
                </g>
            </g>
        </g>
    </g>
</svg>