<?xml version="1.0" encoding="UTF-8"?>
<svg width="16px" height="16px" viewBox="0 0 16 16" version="1.1" xmlns="http://www.w3.org/2000/svg" xmlns:xlink="http://www.w3.org/1999/xlink">
    <!-- Generator: Sketch 56.3 (81716) - https://sketch.com -->
    <title>icn-facebook</title>
    <desc>Created with Sketch.</desc>
    <g id="Page-1" stroke="none" stroke-width="1" fill="none" fill-rule="evenodd">
        <g id="Extra-Large" transform="translate(-852.000000, -3784.000000)" fill="#AAB4BB">
            <g id="---Footer" transform="translate(-229.000000, 3456.000000)">
                <g id="social+github" transform="translate(1081.000000, 326.821192)">
                    <g id="social" transform="translate(0.000000, 0.916115)">
                        <path d="M16,14.6578366 C16,15.163532 15.552,15.5739514 15,15.5739514 L1,15.5739514 C0.448,15.5739514 0,15.163532 0,14.6578366 L0,1.83222958 C0,1.32653422 0.448,0.91611479 1,0.91611479 L15,0.91611479 C15.552,0.91611479 16,1.32653422 16,1.83222958 L16,14.6578366 L16,14.6578366 Z M11,15.5739514 L11,10.0772627 L13,10.0772627 L13.5,7.78697572 L11,7.78697572 L11,6.87086093 C11,5.95474614 11.501,5.49668874 12.5,5.49668874 L13.5,5.49668874 L13.5,3.20640177 L11.5,3.20640177 C9.6625,3.20640177 8.5,4.52606512 8.5,6.41280353 L8.5,7.78697572 L6.5,7.78697572 L6.5,10.0772627 L8.5,10.0772627 L8.5,15.5739514 L11,15.5739514 L11,15.5739514 Z" id="icn-facebook"></path>
                    </g>
                </g>
            </g>
        </g>
    </g>
</svg>