<?xml version="1.0" encoding="UTF-8"?>
<svg width="16px" height="16px" viewBox="0 0 16 16" version="1.1" xmlns="http://www.w3.org/2000/svg" xmlns:xlink="http://www.w3.org/1999/xlink">
    <!-- Generator: Sketch 56.3 (81716) - https://sketch.com -->
    <title>icn-meetup</title>
    <desc>Created with Sketch.</desc>
    <g id="Page-1" stroke="none" stroke-width="1" fill="none" fill-rule="evenodd">
        <g id="Extra-Large" transform="translate(-932.000000, -3784.000000)" fill="#AAB4BB">
            <g id="---Footer" transform="translate(-229.000000, 3456.000000)">
                <g id="social+github" transform="translate(1081.000000, 326.821192)">
                    <g id="social" transform="translate(0.000000, 0.916115)">
                        <path d="M96,2.74834437 C96,1.83222958 95,0.91611479 94,0.91611479 L82,0.91611479 C82,0.91611479 80,0.91611479 80,2.74834437 L80,13.7417219 C80,14.140289 80,15.5739514 82,15.5739514 L94,15.5739514 C95,15.5739514 96,14.6578366 96,13.7417219 L96,2.74834437 Z M82,3.66445916 L94,3.66445916 L94,12.8256071 L82,12.8256071 L82,3.66445916 Z M88.4959375,4.31160837 C87.9668125,4.82254277 87.5509063,6.7445516 87.4282188,7.59313155 C87.2297188,7.41998586 87.0029063,6.9957102 86.879875,6.76190052 C86.728875,6.49342163 86.5680938,6.1904453 86.407375,5.92213818 C86.2752188,5.6883285 86.0955938,5.35068295 85.9725625,5.29869343 C85.7460938,5.2120347 84.8670938,5.26405284 84.6025313,5.48918805 C84.498375,6.45892419 84.4323438,9.36798945 84.8954375,9.9392729 C85.3679688,10.0432519 85.982375,9.87892384 86.2091875,9.75759589 C86.2375,9.32433085 86.1616875,8.86598717 86.1144688,8.44168288 C86.454875,8.99567467 87.0500938,9.71396592 87.2580625,9.93091336 C87.4754375,9.9565932 88.675625,9.91359306 88.7794063,9.79226511 C88.9495938,9.11697399 88.8646875,7.91342819 88.987375,6.7445516 C89.185875,6.99568157 89.8474375,9.70560637 90.28225,10.3808975 C90.5940313,10.3205484 91.2839375,10.1992205 91.4824063,10.147231 C91.3502813,9.77494481 90.1973125,4.99571709 89.8097188,4.39826711 C89.3749063,4.29425945 88.9307188,4.25108754 88.4959375,4.31160837 L88.4959375,4.31160837 L88.4959375,4.31160837 Z" id="icn-meetup"></path>
                    </g>
                </g>
            </g>
        </g>
    </g>
</svg>