<svg width="177" height="50" viewBox="0 0 177 50" xmlns="http://www.w3.org/2000/svg"><g fill-rule="nonzero" fill="none"><path d="M4.574 49.355C8.44 41.639 14.313 34.4 35.832 33.857c18.837-.427 24.118 7.272 27.77 15.498h6.07S67.074 20.877 36.77 20.63C7.584 20.416 2.961 49.355 2.961 49.355h1.613z" fill="#EE485D"/><path d="M1.464 49.355a49.026 49.026 0 0 1 7.551-18.656c6.055-9.526 15.218-18.59 25.862-16.205 16.55 3.701.297 24.677-5.198 34.877h-7.914s10.891-23.443 4.936-25.96c-3.948-1.284-12.7 3.076-18.64 12.783a41.853 41.853 0 0 0-3.85 8.423 37.312 37.312 0 0 0-1.25 4.738H1.464z" fill="#006ED9" opacity=".9" style="mix-blend-mode:multiply"/><path d="M40.422 49.355s1.71-32.903 22.094-46.065V.082l5.1 1.958s6.58 2.846 7.058 3.636c.79 1.283 1.003 2.533 1.645 2.747l5.66 1.843-1.317 3.438s-28.757 13.507-34.597 35.65h-5.643z" fill="#3DB664" style="mix-blend-mode:multiply"/><path d="M76.352 8.423c-.675-.214-.856-1.415-1.645-2.698C73.917 4.442 62.598 0 62.598 0v3.29c-.082 0-31.9-.493-47.627 16.452C1.381 34.384.576 46.607 0 49.355h1.464s.263-1.366.773-3.62A51.543 51.543 0 0 1 8.67 31.258c5.66-9.163 13.935-18.294 27.524-18.097C52.036 12.8 63.306 25.04 63.306 25.04a68.883 68.883 0 0 1 10.924-7.748c3.372-2.073 6.58-3.62 6.58-3.62l1.316-3.438-5.774-1.81z" fill="#00CDDE" style="mix-blend-mode:multiply"/><path d="M23.773 15.975c6.827-4.196 19.922-3.29 26.585.213-1.546 2.715-3.093 5.874-3.093 5.874a31.636 31.636 0 0 0-5.248-1.053c-2.023-9.493-15.563-6.713-18.244-5.034z" fill="#00E8C2"/><g fill="#291953"><path d="M111.213 17.225l-8.835 10.743 9.032 12.092h-4.36L99.5 29.76h-2.024V40.06h-3.702V17.225h3.652v9.443h1.958l7.551-9.443zM128.207 22.456V40.11h-3.389v-2.122c-2.237 1.793-2.977 2.155-4.425 2.155h-2.78a3.85 3.85 0 0 1-3.028-1.02c-.69-.675-1.052-1.53-1.052-3.981V22.456h3.405V34.91a2.27 2.27 0 0 0 .46 1.645c.346.362.675.494 1.827.494h2.287a6.86 6.86 0 0 0 3.29-.987V22.407l3.405.05zM136.548 22.456v2.123c2.221-1.826 2.945-2.155 4.41-2.155h2.171a3.883 3.883 0 0 1 3.044 1.02c.37.371.64.83.79 1.332 2.45-1.99 3.158-2.352 4.672-2.352h2.122a3.915 3.915 0 0 1 3.043 1.02c.675.674 1.037 1.53 1.037 3.98V40.11h-3.406V27.655a2.254 2.254 0 0 0-.46-1.645c-.362-.362-.691-.494-1.826-.494h-1.646a7.305 7.305 0 0 0-3.29.971c.018.329.018.658 0 .987v12.684h-3.405V27.655a2.254 2.254 0 0 0-.461-1.645c-.362-.362-.691-.494-1.826-.494h-1.678a7.19 7.19 0 0 0-3.29.971v13.671h-3.29V22.456h3.29zM163.743 23.444a3.636 3.636 0 0 1 2.978-.988h5.429a4.409 4.409 0 0 1 3.438.955c.806.806 1.004 1.645 1.004 4.804v11.894h-3.29v-2.155c-2.14 1.76-2.748 2.188-4.327 2.188h-2.814a3.932 3.932 0 0 1-3.158-.921 5.05 5.05 0 0 1-1.053-3.85 5.988 5.988 0 0 1 1.085-4.113c.774-.773 1.646-1.267 5.84-1.267 1.47-.04 2.937.127 4.36.494v-2.007c0-2.073-.148-2.583-.394-2.846-.247-.264-.593-.297-1.547-.297h-3.488c-.822 0-1.184 0-1.414.297-.23.296-.33.839-.395 2.188h-3.29c0-2.682.361-3.702 1.036-4.376zm9.492 12.75v-3.702h-4.59c-2.22 0-2.648.164-2.928.46-.28.297-.428.708-.428 1.86 0 1.151 0 1.892.33 2.155.328.263.575.263 1.365.263h2.468a6.729 6.729 0 0 0 3.783-1.036z"/></g></g></svg>